# xmcd
#
# Track frame offsets:
# 150
# 9765
# 21250
# 32189
# 42398
# 55761
#
# Disc length: 838 seconds
#
# Revision: 0
# Processed by: cddbd v1.4PL0 Copyright (c) Steve Scherf et al.
# Submitted via: Audion 3.0.2 (http://www.panic.com/audion/)
#
DISCID=40034406
DTITLE=The Badger King - The Badger King Break Up
DYEAR=1900
DGENRE=
TTITLE0=I Am Ire
TTITLE1=Water Quiet, Water Dark
TTITLE2=Strong Cherry Tree
TTITLE3=Flee To Me, Remote Elf
TTITLE4=Buck and I (Axe Cracked and Row Boat Path Remix)
TTITLE5=You Are A Great Beast (Dig Dug Remix)
EXTD=
EXTT0=
EXTT1=
EXTT2=
EXTT3=
EXTT4=
EXTT5=
PLAYORDER=
